<svg width="44" height="44" viewBox="0 0 44 44" fill="none" xmlns="http://www.w3.org/2000/svg">
    <path d="M0 22C0 9.84974 9.84974 0 22 0V0C34.1503 0 44 9.84974 44 22V22C44 34.1503 34.1503 44 22 44V44C9.84974 44 0 34.1503 0 22V22Z" fill="#FC762A"/>
    <path fill-rule="evenodd" clip-rule="evenodd" d="M29.8976 19.7002C30.2659 17.2345 28.3886 15.909 25.8216 15.0248L26.6543 11.6847L24.6206 11.1781L23.8099 14.4301C23.276 14.2969 22.727 14.1712 22.1816 14.0467L22.998 10.7733L20.9661 10.2666L20.1328 13.6055C19.6904 13.5047 19.2561 13.4051 18.8345 13.3003L18.8369 13.2899L16.033 12.5898L15.4922 14.7613C15.4922 14.7613 17.0006 15.107 16.9688 15.1284C17.7922 15.334 17.9416 15.8789 17.9161 16.3109L16.9676 20.1159C17.0244 20.1304 17.0979 20.1513 17.179 20.1837L16.9647 20.1304L15.6346 25.4607C15.5339 25.7109 15.2785 26.0861 14.7029 25.9437C14.7232 25.9732 13.2251 25.5748 13.2251 25.5748L12.2158 27.9026L14.8622 28.5622C15.1609 28.6371 15.4561 28.7141 15.748 28.7902C15.9369 28.8395 16.1247 28.8885 16.311 28.9363L15.4696 32.3151L17.5004 32.8218L18.3342 29.4794C18.8884 29.63 19.4269 29.769 19.9539 29.8998L19.1235 33.2266L21.1566 33.7333L21.998 30.3614C25.4649 31.0174 28.0724 30.7528 29.1686 27.6177C30.0528 25.093 29.1251 23.6367 27.3011 22.6864C28.6295 22.3789 29.6307 21.5051 29.8976 19.7002ZM25.2516 26.2142C24.6744 28.5314 21.0466 27.5726 19.3882 27.1343C19.2397 27.0951 19.1069 27.06 18.9936 27.0318L20.1101 22.5562C20.2485 22.5908 20.4178 22.6288 20.6094 22.6718C22.3251 23.0568 25.8407 23.8458 25.2516 26.2142ZM20.9543 20.5949C22.3381 20.9641 25.3544 21.7688 25.8799 19.6637C26.4171 17.5102 23.484 16.8612 22.0516 16.5442C21.8905 16.5085 21.7485 16.4771 21.6324 16.4482L20.6202 20.5074C20.716 20.5313 20.8284 20.5613 20.9543 20.5949Z" fill="white"/>
</svg>
