<svg width="44" height="44" viewBox="0 0 44 44" fill="none" xmlns="http://www.w3.org/2000/svg">
    <path d="M0 22C0 9.84974 9.84974 0 22 0C34.1503 0 44 9.84974 44 22C44 34.1503 34.1503 44 22 44C9.84974 44 0 34.1503 0 22Z" fill="white"/>
    <path d="M22 4C18.4399 4 14.9598 5.05568 11.9997 7.03355C9.03966 9.01141 6.73255 11.8226 5.37018 15.1117C4.0078 18.4008 3.65134 22.02 4.34587 25.5116C5.04041 29.0033 6.75474 32.2106 9.27208 34.7279C11.7894 37.2453 14.9967 38.9596 18.4884 39.6541C21.98 40.3487 25.5992 39.9922 28.8883 38.6298C32.1774 37.2674 34.9886 34.9603 36.9665 32.0003C38.9443 29.0402 40 25.5601 40 22C40 17.2261 38.1036 12.6477 34.7279 9.27208C31.3523 5.89642 26.7739 4 22 4ZM21.607 9.517H25.483C25.5623 9.5171 25.6405 9.53552 25.7115 9.57083C25.7825 9.60614 25.8443 9.65737 25.8923 9.72054C25.9402 9.78371 25.9728 9.8571 25.9877 9.93498C26.0026 10.0129 25.9993 10.0931 25.978 10.1695L22.933 20.5465L25.7905 19.6735L25.1785 21.751L22.2925 22.591L20.4205 28.912H30.4345C30.5139 28.9124 30.5921 28.9312 30.663 28.9669C30.7339 29.0026 30.7955 29.0542 30.8432 29.1176C30.8908 29.1811 30.9231 29.2548 30.9376 29.3328C30.9521 29.4108 30.9483 29.4912 30.9265 29.5675L30.0535 32.5675C30.0115 32.7101 29.9246 32.8353 29.8056 32.9245C29.6867 33.0137 29.5422 33.0621 29.3935 33.0625H14.0995L16.684 24.3295L13.825 25.1995L14.455 23.158L17.32 22.288L20.953 10.018C20.9928 9.87452 21.0784 9.74796 21.1967 9.65754C21.315 9.56712 21.4596 9.51778 21.6085 9.517" fill="#2D3D7C"/>
    <path d="M44 22C44 34.1503 34.1503 44 22 44C9.84974 44 0 34.1503 0 22C0 9.84974 9.84974 0 22 0C34.1503 0 44 9.84974 44 22ZM4.75989 22C4.75989 31.5214 12.4786 39.2401 22 39.2401C31.5214 39.2401 39.2401 31.5214 39.2401 22C39.2401 12.4786 31.5214 4.75989 22 4.75989C12.4786 4.75989 4.75989 12.4786 4.75989 22Z" fill="#2D3D7C"/>
</svg>
