<svg width="50" height="41" viewBox="0 0 50 41" fill="none" xmlns="http://www.w3.org/2000/svg">
    <path d="M1.58427 9.57758C1.26384 9.57881 0.950357 9.48429 0.684013 9.30616C0.417668 9.12802 0.210611 8.87438 0.0893878 8.57777C-0.0318353 8.28116 -0.0617005 7.9551 0.00363493 7.64141C0.0689704 7.32772 0.226522 7.04069 0.456083 6.81714L7.00913 0.408117C8.0653 0.408117 20.6833 0.248092 44.8632 -0.0719596C45.2113 -0.105435 45.5609 -0.0245212 45.8589 0.15852C46.1569 0.341561 46.3871 0.616753 46.5146 0.942394C46.6422 1.26804 46.6601 1.62638 46.5657 1.96312C46.4712 2.29986 46.2696 2.59664 45.9914 2.8085L39.2703 9.62559L1.58427 9.57758ZM1.58427 39.9905C1.26834 40.0008 0.9567 39.915 0.690624 39.7444C0.424548 39.5737 0.216585 39.3263 0.0942683 39.0348C-0.028048 38.7433 -0.0589531 38.4216 0.00565857 38.1121C0.0702703 37.8027 0.227346 37.5202 0.456083 37.302L7.00913 30.677H47.2396C47.5555 30.6666 47.8671 30.7524 48.1332 30.923C48.3993 31.0937 48.6073 31.3411 48.7296 31.6326C48.8519 31.9241 48.8828 32.2459 48.8182 32.5553C48.7536 32.8647 48.5965 33.1472 48.3677 33.3654L41.6467 40.0145L1.58427 39.9905ZM41.6707 15.3385C42.0905 15.3442 42.493 15.5069 42.7989 15.7946L49.5199 22.4196C49.7447 22.6412 49.8982 22.925 49.9607 23.2344C50.0232 23.5438 49.9918 23.8648 49.8706 24.1563C49.7493 24.4478 49.5438 24.6964 49.2803 24.8702C49.0168 25.0441 48.7074 25.1353 48.3918 25.1321H8.16132C7.94697 25.1329 7.73462 25.0908 7.53675 25.0084C7.33889 24.9259 7.1595 24.8048 7.00913 24.652L0.456083 18.0029C0.235987 17.7833 0.0865439 17.5029 0.0269205 17.1977C-0.0327028 16.8925 0.000214478 16.5765 0.121455 16.2902C0.242695 16.0038 0.446723 15.7603 0.707362 15.5907C0.968002 15.4211 1.27337 15.3333 1.58427 15.3385H41.6707Z" fill="url(#paint0_linear_87_1640)"/>
    <defs>
        <linearGradient id="paint0_linear_87_1640" x1="36.1606" y1="-5.07388" x2="24.3848" y2="23.4894" gradientUnits="userSpaceOnUse">
            <stop stop-color="#02FFAD"/>
            <stop offset="0.5" stop-color="#79ABD2"/>
            <stop offset="1" stop-color="#F71DF4"/>
        </linearGradient>
    </defs>
</svg>
