<svg width="44" height="44" viewBox="0 0 44 44" fill="none" xmlns="http://www.w3.org/2000/svg">
    <path d="M0 22C0 9.84974 9.84974 0 22 0C34.1503 0 44 9.84974 44 22C44 34.1503 34.1503 44 22 44C9.84974 44 0 34.1503 0 22Z" fill="white"/>
    <path d="M22 40C12.0584 40 4 31.9416 4 22C4 12.0584 12.0584 4 22 4C31.9416 4 40 12.0584 40 22C40 31.9416 31.9416 40 22 40ZM29.9538 13L24.808 18.0884C24.0593 18.8273 23.0497 19.2417 21.9977 19.2417C20.9458 19.2417 19.9362 18.8273 19.1875 18.0884L14.0463 13H10.7894L17.5619 19.7016C18.7448 20.8675 20.3391 21.5211 22 21.5211C23.6609 21.5211 25.2552 20.8675 26.4381 19.7016L33.2061 13H29.9538ZM14.0069 31.6334L19.192 26.5C19.9407 25.761 20.9503 25.3467 22.0023 25.3467C23.0542 25.3467 24.0638 25.761 24.8125 26.5L29.9931 31.6334H33.25L26.4381 24.8913C25.2552 23.7253 23.6609 23.0718 22 23.0718C20.3391 23.0718 18.7448 23.7253 17.5619 24.8913L10.75 31.6322L14.0069 31.6334Z" fill="black"/>
    <path d="M44 22C44 34.1503 34.1503 44 22 44C9.84974 44 0 34.1503 0 22C0 9.84974 9.84974 0 22 0C34.1503 0 44 9.84974 44 22ZM4.75989 22C4.75989 31.5214 12.4786 39.2401 22 39.2401C31.5214 39.2401 39.2401 31.5214 39.2401 22C39.2401 12.4786 31.5214 4.75989 22 4.75989C12.4786 4.75989 4.75989 12.4786 4.75989 22Z" fill="black"/>
</svg>
